G04*
G04 #@! TF.GenerationSoftware,Altium Limited,Altium Designer,22.4.2 (48)*
G04*
G04 Layer_Color=65535*
%FSLAX25Y25*%
%MOIN*%
G70*
G04*
G04 #@! TF.SameCoordinates,AC32F47B-EC56-4475-8078-1485B9E55ABE*
G04*
G04*
G04 #@! TF.FilePolarity,Positive*
G04*
G01*
G75*
%ADD10C,0.00787*%
%ADD11C,0.00500*%
%ADD12C,0.01000*%
D10*
X391429Y277083D02*
G03*
X391429Y277083I-394J0D01*
G01*
X531394Y124441D02*
G03*
X531394Y124441I-394J0D01*
G01*
Y163441D02*
G03*
X531394Y163441I-394J0D01*
G01*
X530894Y205941D02*
G03*
X530894Y205941I-394J0D01*
G01*
Y244941D02*
G03*
X530894Y244941I-394J0D01*
G01*
Y282941D02*
G03*
X530894Y282941I-394J0D01*
G01*
X544894Y297638D02*
G03*
X544894Y297638I-394J0D01*
G01*
X526000Y127000D02*
X536000D01*
X526000D02*
Y157000D01*
X536000Y127000D02*
Y157000D01*
X526000D02*
X536000D01*
X526000Y166000D02*
X536000D01*
X526000D02*
Y196000D01*
X536000Y166000D02*
Y196000D01*
X526000D02*
X536000D01*
X525500Y208500D02*
X535500D01*
X525500D02*
Y238500D01*
X535500Y208500D02*
Y238500D01*
X525500D02*
X535500D01*
X525500Y247500D02*
X535500D01*
X525500D02*
Y277500D01*
X535500Y247500D02*
Y277500D01*
X525500D02*
X535500D01*
X525500Y285500D02*
X535500D01*
X525500D02*
Y315500D01*
X535500Y285500D02*
Y315500D01*
X525500D02*
X535500D01*
X516000Y151500D02*
X519000D01*
X516000Y131500D02*
Y151500D01*
Y131500D02*
X522000D01*
Y151500D01*
X519000D02*
X522000D01*
X519000Y130600D02*
Y131500D01*
Y151500D02*
Y152400D01*
X516000Y191000D02*
X519000D01*
X516000Y171000D02*
Y191000D01*
Y171000D02*
X522000D01*
Y191000D01*
X519000D02*
X522000D01*
X519000Y170100D02*
Y171000D01*
Y191000D02*
Y191900D01*
X516000Y230000D02*
X519000D01*
X516000Y210000D02*
Y230000D01*
Y210000D02*
X522000D01*
Y230000D01*
X519000D02*
X522000D01*
X519000Y209100D02*
Y210000D01*
Y230000D02*
Y230900D01*
X516000Y269000D02*
X519000D01*
X516000Y249000D02*
Y269000D01*
Y249000D02*
X522000D01*
Y269000D01*
X519000D02*
X522000D01*
X519000Y248100D02*
Y249000D01*
Y269000D02*
Y269900D01*
X515000Y308500D02*
X518000D01*
X515000Y288500D02*
Y308500D01*
Y288500D02*
X521000D01*
Y308500D01*
X518000D02*
X521000D01*
X518000Y287600D02*
Y288500D01*
Y308500D02*
Y309400D01*
X547669Y295000D02*
X549402D01*
Y292382D02*
Y295000D01*
Y282382D02*
Y287618D01*
Y272382D02*
Y277618D01*
Y262382D02*
Y267618D01*
Y255000D02*
Y257618D01*
X547669Y255000D02*
X549402D01*
D11*
X484067Y115705D02*
X505524D01*
X414421D02*
X484067D01*
X393280D02*
X414421D01*
X505524D02*
Y316295D01*
X393280Y115705D02*
Y316295D01*
X463280D02*
X505524D01*
X436858D02*
X463280D01*
X393280D02*
X436858D01*
X393280Y115705D02*
Y316295D01*
X505524D01*
X393280Y115705D02*
X505524D01*
Y316295D01*
X540000Y150000D02*
Y165000D01*
X550000Y150000D02*
Y165000D01*
X548854D02*
X550000D01*
X540000D02*
X541146D01*
X548854Y150000D02*
X550000D01*
X540000D02*
X541146D01*
X540000Y186000D02*
Y201000D01*
X550000Y186000D02*
Y201000D01*
X548854D02*
X550000D01*
X540000D02*
X541146D01*
X548854Y186000D02*
X550000D01*
X540000D02*
X541146D01*
X541500Y222500D02*
Y237500D01*
X551500Y222500D02*
Y237500D01*
X550354D02*
X551500D01*
X541500D02*
X542646D01*
X550354Y222500D02*
X551500D01*
X541500D02*
X542646D01*
D12*
X418720Y292468D02*
Y289188D01*
X419376Y288532D01*
X420688D01*
X421344Y289188D01*
Y292468D01*
X422656Y291812D02*
X423312Y292468D01*
X424624D01*
X425280Y291812D01*
Y291156D01*
X423968Y289844D01*
Y289188D02*
Y288532D01*
X512468Y293580D02*
X508532D01*
Y295548D01*
X509188Y296204D01*
X510500D01*
X511156Y295548D01*
Y293580D01*
Y294892D02*
X512468Y296204D01*
Y297516D02*
Y298828D01*
Y298172D01*
X508532D01*
X509188Y297516D01*
Y300796D02*
X508532Y301452D01*
Y302764D01*
X509188Y303420D01*
X511812D01*
X512468Y302764D01*
Y301452D01*
X511812Y300796D01*
X509188D01*
X512468Y180720D02*
X508532D01*
Y182688D01*
X509188Y183344D01*
X510500D01*
X511156Y182688D01*
Y180720D01*
Y182032D02*
X512468Y183344D01*
X511812Y184656D02*
X512468Y185312D01*
Y186624D01*
X511812Y187280D01*
X509188D01*
X508532Y186624D01*
Y185312D01*
X509188Y184656D01*
X509844D01*
X510500Y185312D01*
Y187280D01*
X512468Y217220D02*
X508532D01*
Y219188D01*
X509188Y219844D01*
X510500D01*
X511156Y219188D01*
Y217220D01*
Y218532D02*
X512468Y219844D01*
X509188Y221156D02*
X508532Y221812D01*
Y223124D01*
X509188Y223780D01*
X509844D01*
X510500Y223124D01*
X511156Y223780D01*
X511812D01*
X512468Y223124D01*
Y221812D01*
X511812Y221156D01*
X511156D01*
X510500Y221812D01*
X509844Y221156D01*
X509188D01*
X510500Y221812D02*
Y223124D01*
X512968Y257720D02*
X509032D01*
Y259688D01*
X509688Y260344D01*
X511000D01*
X511656Y259688D01*
Y257720D01*
Y259032D02*
X512968Y260344D01*
X509032Y261656D02*
Y264280D01*
X509688D01*
X512312Y261656D01*
X512968D01*
X513468Y139720D02*
X509532D01*
Y141688D01*
X510188Y142344D01*
X511500D01*
X512156Y141688D01*
Y139720D01*
Y141032D02*
X513468Y142344D01*
X509532Y146280D02*
X510188Y144968D01*
X511500Y143656D01*
X512812D01*
X513468Y144312D01*
Y145624D01*
X512812Y146280D01*
X512156D01*
X511500Y145624D01*
Y143656D01*
X542124Y305336D02*
X540812D01*
X541468D01*
Y302056D01*
X540812Y301400D01*
X540156D01*
X539500Y302056D01*
X543436Y301400D02*
X544748D01*
X544092D01*
Y305336D01*
X543436Y304680D01*
X548683Y301400D02*
Y305336D01*
X546715Y303368D01*
X549339D01*
X528532Y298204D02*
Y296892D01*
Y297548D01*
X531812D01*
X532468Y296892D01*
Y296236D01*
X531812Y295580D01*
X532468Y299516D02*
Y300828D01*
Y300172D01*
X528532D01*
X529188Y299516D01*
Y302796D02*
X528532Y303452D01*
Y304764D01*
X529188Y305420D01*
X529844D01*
X530500Y304764D01*
Y304108D01*
Y304764D01*
X531156Y305420D01*
X531812D01*
X532468Y304764D01*
Y303452D01*
X531812Y302796D01*
X528032Y260204D02*
Y258892D01*
Y259548D01*
X531312D01*
X531968Y258892D01*
Y258236D01*
X531312Y257580D01*
X531968Y261516D02*
Y262828D01*
Y262172D01*
X528032D01*
X528688Y261516D01*
X531968Y267420D02*
Y264796D01*
X529344Y267420D01*
X528688D01*
X528032Y266764D01*
Y265452D01*
X528688Y264796D01*
X528532Y221204D02*
Y219892D01*
Y220548D01*
X531812D01*
X532468Y219892D01*
Y219236D01*
X531812Y218580D01*
X532468Y222516D02*
Y223828D01*
Y223172D01*
X528532D01*
X529188Y222516D01*
Y225796D02*
X528532Y226452D01*
Y227764D01*
X529188Y228420D01*
X531812D01*
X532468Y227764D01*
Y226452D01*
X531812Y225796D01*
X529188D01*
X528532Y181344D02*
Y180032D01*
Y180688D01*
X531812D01*
X532468Y180032D01*
Y179376D01*
X531812Y178720D01*
Y182656D02*
X532468Y183312D01*
Y184624D01*
X531812Y185280D01*
X529188D01*
X528532Y184624D01*
Y183312D01*
X529188Y182656D01*
X529844D01*
X530500Y183312D01*
Y185280D01*
X528532Y141344D02*
Y140032D01*
Y140688D01*
X531812D01*
X532468Y140032D01*
Y139376D01*
X531812Y138720D01*
X528532Y142656D02*
Y145280D01*
X529188D01*
X531812Y142656D01*
X532468D01*
X546344Y217812D02*
X545688Y218468D01*
X544376D01*
X543720Y217812D01*
Y215188D01*
X544376Y214532D01*
X545688D01*
X546344Y215188D01*
X550280Y218468D02*
X548968Y217812D01*
X547656Y216500D01*
Y215188D01*
X548312Y214532D01*
X549624D01*
X550280Y215188D01*
Y215844D01*
X549624Y216500D01*
X547656D01*
X544344Y144312D02*
X543688Y144968D01*
X542376D01*
X541720Y144312D01*
Y141688D01*
X542376Y141032D01*
X543688D01*
X544344Y141688D01*
X548280Y144968D02*
X545656D01*
Y143000D01*
X546968Y143656D01*
X547624D01*
X548280Y143000D01*
Y141688D01*
X547624Y141032D01*
X546312D01*
X545656Y141688D01*
X543844Y181812D02*
X543188Y182468D01*
X541876D01*
X541220Y181812D01*
Y179188D01*
X541876Y178532D01*
X543188D01*
X543844Y179188D01*
X547124Y178532D02*
Y182468D01*
X545156Y180500D01*
X547780D01*
M02*
