M48
;Layer_Color=9474304
;FILE_FORMAT=2:5
INCH,LZ
;TYPE=PLATED
T1F00S00C0.02800
T2F00S00C0.03189
T3F00S00C0.03346
T4F00S00C0.04016
;TYPE=NON_PLATED
T5F00S00C0.11811
%
T01
X0438583Y0267083
T02
X0545Y01525
Y01625
Y01885
Y01985
X05465Y0225
Y0235
T03
X0519Y01265
Y01565
Y0166
Y0196
Y0205
Y0235
Y0244
Y0274
X0518Y02835
Y03135
T04
X03995Y0137083
Y0147083
X04995
Y0137083
X0531Y0132
Y0152
Y0171
Y0191
X05305Y02135
Y02335
Y02525
Y02725
X05445Y027
Y026
Y028
Y029
X05305Y02905
Y03105
X04995Y0277083
Y0267083
Y0257083
Y0247083
Y0237083
Y0227083
Y0217083
Y0207083
Y0197083
Y0187083
Y0177083
Y0167083
Y0157083
X03995
Y0167083
Y0177083
Y0187083
Y0197083
Y0207083
Y0217083
Y0227083
Y0237083
Y0247083
Y0257083
Y0267083
Y0277083
T05
X0401154Y0123579
X049765
Y0308421
X0401154
M30
