G04*
G04 #@! TF.GenerationSoftware,Altium Limited,Altium Designer,22.4.2 (48)*
G04*
G04 Layer_Color=2752767*
%FSLAX25Y25*%
%MOIN*%
G70*
G04*
G04 #@! TF.SameCoordinates,AC32F47B-EC56-4475-8078-1485B9E55ABE*
G04*
G04*
G04 #@! TF.FilePolarity,Positive*
G04*
G01*
G75*
%ADD11C,0.00500*%
%ADD37C,0.00667*%
D11*
X399154Y306421D02*
Y310421D01*
X403154D01*
Y306421D01*
X399154D01*
X495650D02*
Y310421D01*
X499650D01*
Y306421D01*
X495650D01*
Y121579D02*
Y125579D01*
X499650D01*
Y121579D01*
X495650D01*
X399154D02*
Y125579D01*
X403154D01*
Y121579D01*
X399154D01*
X545000Y160500D02*
X543000Y164500D01*
X547000D01*
X545000Y160500D01*
Y150500D02*
X543000Y154500D01*
X547000D01*
X545000Y150500D01*
Y196500D02*
X543000Y200500D01*
X547000D01*
X545000Y196500D01*
Y186500D02*
X543000Y190500D01*
X547000D01*
X545000Y186500D01*
X546500Y233000D02*
X544500Y237000D01*
X548500D01*
X546500Y233000D01*
Y223000D02*
X544500Y227000D01*
X548500D01*
X546500Y223000D01*
X519000Y154500D02*
X520000Y155500D01*
X521000D01*
X520000Y156500D01*
X521000Y157500D01*
X520000D01*
X519000Y158500D01*
X518000Y157500D01*
X517000D01*
X518000Y156500D01*
X517000Y155500D01*
X518000D01*
X519000Y154500D01*
Y124500D02*
X520000Y125500D01*
X521000D01*
X520000Y126500D01*
X521000Y127500D01*
X520000D01*
X519000Y128500D01*
X518000Y127500D01*
X517000D01*
X518000Y126500D01*
X517000Y125500D01*
X518000D01*
X519000Y124500D01*
Y194000D02*
X520000Y195000D01*
X521000D01*
X520000Y196000D01*
X521000Y197000D01*
X520000D01*
X519000Y198000D01*
X518000Y197000D01*
X517000D01*
X518000Y196000D01*
X517000Y195000D01*
X518000D01*
X519000Y194000D01*
Y164000D02*
X520000Y165000D01*
X521000D01*
X520000Y166000D01*
X521000Y167000D01*
X520000D01*
X519000Y168000D01*
X518000Y167000D01*
X517000D01*
X518000Y166000D01*
X517000Y165000D01*
X518000D01*
X519000Y164000D01*
Y233000D02*
X520000Y234000D01*
X521000D01*
X520000Y235000D01*
X521000Y236000D01*
X520000D01*
X519000Y237000D01*
X518000Y236000D01*
X517000D01*
X518000Y235000D01*
X517000Y234000D01*
X518000D01*
X519000Y233000D01*
Y203000D02*
X520000Y204000D01*
X521000D01*
X520000Y205000D01*
X521000Y206000D01*
X520000D01*
X519000Y207000D01*
X518000Y206000D01*
X517000D01*
X518000Y205000D01*
X517000Y204000D01*
X518000D01*
X519000Y203000D01*
Y272000D02*
X520000Y273000D01*
X521000D01*
X520000Y274000D01*
X521000Y275000D01*
X520000D01*
X519000Y276000D01*
X518000Y275000D01*
X517000D01*
X518000Y274000D01*
X517000Y273000D01*
X518000D01*
X519000Y272000D01*
Y242000D02*
X520000Y243000D01*
X521000D01*
X520000Y244000D01*
X521000Y245000D01*
X520000D01*
X519000Y246000D01*
X518000Y245000D01*
X517000D01*
X518000Y244000D01*
X517000Y243000D01*
X518000D01*
X519000Y242000D01*
X518000Y311500D02*
X519000Y312500D01*
X520000D01*
X519000Y313500D01*
X520000Y314500D01*
X519000D01*
X518000Y315500D01*
X517000Y314500D01*
X516000D01*
X517000Y313500D01*
X516000Y312500D01*
X517000D01*
X518000Y311500D01*
Y281500D02*
X519000Y282500D01*
X520000D01*
X519000Y283500D01*
X520000Y284500D01*
X519000D01*
X518000Y285500D01*
X517000Y284500D01*
X516000D01*
X517000Y283500D01*
X516000Y282500D01*
X517000D01*
X518000Y281500D01*
X436583Y265083D02*
X437583Y267083D01*
X436583Y269083D01*
X438583Y268083D01*
X440583Y269083D01*
X439583Y267083D01*
X440583Y265083D01*
X438583Y266083D01*
X436583Y265083D01*
D37*
X501500Y137083D02*
G03*
X501500Y137083I-2000J0D01*
G01*
Y147083D02*
G03*
X501500Y147083I-2000J0D01*
G01*
Y157083D02*
G03*
X501500Y157083I-2000J0D01*
G01*
Y167083D02*
G03*
X501500Y167083I-2000J0D01*
G01*
Y177083D02*
G03*
X501500Y177083I-2000J0D01*
G01*
Y187083D02*
G03*
X501500Y187083I-2000J0D01*
G01*
Y197083D02*
G03*
X501500Y197083I-2000J0D01*
G01*
Y207083D02*
G03*
X501500Y207083I-2000J0D01*
G01*
Y217083D02*
G03*
X501500Y217083I-2000J0D01*
G01*
Y227083D02*
G03*
X501500Y227083I-2000J0D01*
G01*
Y237083D02*
G03*
X501500Y237083I-2000J0D01*
G01*
Y247083D02*
G03*
X501500Y247083I-2000J0D01*
G01*
Y257083D02*
G03*
X501500Y257083I-2000J0D01*
G01*
Y267083D02*
G03*
X501500Y267083I-2000J0D01*
G01*
Y277083D02*
G03*
X501500Y277083I-2000J0D01*
G01*
X401500Y137083D02*
G03*
X401500Y137083I-2000J0D01*
G01*
Y147083D02*
G03*
X401500Y147083I-2000J0D01*
G01*
Y157083D02*
G03*
X401500Y157083I-2000J0D01*
G01*
Y167083D02*
G03*
X401500Y167083I-2000J0D01*
G01*
Y177083D02*
G03*
X401500Y177083I-2000J0D01*
G01*
Y187083D02*
G03*
X401500Y187083I-2000J0D01*
G01*
Y197083D02*
G03*
X401500Y197083I-2000J0D01*
G01*
Y207083D02*
G03*
X401500Y207083I-2000J0D01*
G01*
Y217083D02*
G03*
X401500Y217083I-2000J0D01*
G01*
Y227083D02*
G03*
X401500Y227083I-2000J0D01*
G01*
Y237083D02*
G03*
X401500Y237083I-2000J0D01*
G01*
Y247083D02*
G03*
X401500Y247083I-2000J0D01*
G01*
Y257083D02*
G03*
X401500Y257083I-2000J0D01*
G01*
Y267083D02*
G03*
X401500Y267083I-2000J0D01*
G01*
Y277083D02*
G03*
X401500Y277083I-2000J0D01*
G01*
X533000Y152000D02*
G03*
X533000Y152000I-2000J0D01*
G01*
Y132000D02*
G03*
X533000Y132000I-2000J0D01*
G01*
Y191000D02*
G03*
X533000Y191000I-2000J0D01*
G01*
Y171000D02*
G03*
X533000Y171000I-2000J0D01*
G01*
X532500Y233500D02*
G03*
X532500Y233500I-2000J0D01*
G01*
Y213500D02*
G03*
X532500Y213500I-2000J0D01*
G01*
Y272500D02*
G03*
X532500Y272500I-2000J0D01*
G01*
Y252500D02*
G03*
X532500Y252500I-2000J0D01*
G01*
Y310500D02*
G03*
X532500Y310500I-2000J0D01*
G01*
Y290500D02*
G03*
X532500Y290500I-2000J0D01*
G01*
X546500Y260000D02*
G03*
X546500Y260000I-2000J0D01*
G01*
Y270000D02*
G03*
X546500Y270000I-2000J0D01*
G01*
Y280000D02*
G03*
X546500Y280000I-2000J0D01*
G01*
Y290000D02*
G03*
X546500Y290000I-2000J0D01*
G01*
M02*
