G04*
G04 #@! TF.GenerationSoftware,Altium Limited,Altium Designer,22.4.2 (48)*
G04*
G04 Layer_Color=16711935*
%FSLAX25Y25*%
%MOIN*%
G70*
G04*
G04 #@! TF.SameCoordinates,AC32F47B-EC56-4475-8078-1485B9E55ABE*
G04*
G04*
G04 #@! TF.FilePolarity,Negative*
G04*
G01*
G75*
%ADD13C,0.12611*%
%ADD14C,0.08674*%
%ADD15R,0.08674X0.08674*%
%ADD16C,0.05989*%
%ADD17R,0.05989X0.05989*%
%ADD18C,0.06194*%
%ADD19R,0.06194X0.06194*%
%ADD20C,0.06312*%
%ADD21C,0.06784*%
%ADD22C,0.05800*%
D13*
X401154Y308421D02*
D03*
X497650D02*
D03*
Y123579D02*
D03*
X401154D02*
D03*
D14*
X499500Y137083D02*
D03*
Y147083D02*
D03*
Y157083D02*
D03*
Y167083D02*
D03*
Y177083D02*
D03*
Y187083D02*
D03*
Y197083D02*
D03*
Y207083D02*
D03*
Y217083D02*
D03*
Y227083D02*
D03*
Y237083D02*
D03*
Y247083D02*
D03*
Y257083D02*
D03*
Y267083D02*
D03*
Y277083D02*
D03*
X399500Y137083D02*
D03*
Y147083D02*
D03*
Y157083D02*
D03*
Y167083D02*
D03*
Y177083D02*
D03*
Y187083D02*
D03*
Y197083D02*
D03*
Y207083D02*
D03*
Y217083D02*
D03*
Y227083D02*
D03*
Y237083D02*
D03*
Y247083D02*
D03*
Y257083D02*
D03*
Y267083D02*
D03*
D15*
Y277083D02*
D03*
D16*
X545000Y162500D02*
D03*
Y198500D02*
D03*
X546500Y235000D02*
D03*
D17*
X545000Y152500D02*
D03*
Y188500D02*
D03*
X546500Y225000D02*
D03*
D18*
X531000Y152000D02*
D03*
Y191000D02*
D03*
X530500Y233500D02*
D03*
Y272500D02*
D03*
Y310500D02*
D03*
D19*
X531000Y132000D02*
D03*
Y171000D02*
D03*
X530500Y213500D02*
D03*
Y252500D02*
D03*
Y290500D02*
D03*
D20*
X519000Y156500D02*
D03*
Y126500D02*
D03*
Y196000D02*
D03*
Y166000D02*
D03*
Y235000D02*
D03*
Y205000D02*
D03*
Y274000D02*
D03*
Y244000D02*
D03*
X518000Y313500D02*
D03*
Y283500D02*
D03*
D21*
X544500Y260000D02*
D03*
Y270000D02*
D03*
Y280000D02*
D03*
Y290000D02*
D03*
D22*
X438583Y267083D02*
D03*
M02*
