G04*
G04 #@! TF.GenerationSoftware,Altium Limited,Altium Designer,22.4.2 (48)*
G04*
G04 Layer_Color=128*
%FSLAX25Y25*%
%MOIN*%
G70*
G04*
G04 #@! TF.SameCoordinates,AC32F47B-EC56-4475-8078-1485B9E55ABE*
G04*
G04*
G04 #@! TF.FilePolarity,Positive*
G04*
G01*
G75*
%ADD11C,0.00500*%
D11*
X395248Y308421D02*
X407059D01*
X401154Y302516D02*
Y314327D01*
X491744Y308421D02*
X503555D01*
X497650Y302516D02*
Y314327D01*
X491744Y123579D02*
X503555D01*
X497650Y117673D02*
Y129484D01*
X395248Y123579D02*
X407059D01*
X401154Y117673D02*
Y129484D01*
X497492Y137083D02*
X501508D01*
X499500Y135075D02*
Y139091D01*
X497492Y147083D02*
X501508D01*
X499500Y145075D02*
Y149091D01*
X497492Y157083D02*
X501508D01*
X499500Y155075D02*
Y159090D01*
X497492Y167083D02*
X501508D01*
X499500Y165075D02*
Y169090D01*
X497492Y177083D02*
X501508D01*
X499500Y175075D02*
Y179090D01*
X497492Y187083D02*
X501508D01*
X499500Y185075D02*
Y189091D01*
X497492Y197083D02*
X501508D01*
X499500Y195075D02*
Y199091D01*
X497492Y207083D02*
X501508D01*
X499500Y205075D02*
Y209090D01*
X497492Y217083D02*
X501508D01*
X499500Y215075D02*
Y219091D01*
X497492Y227083D02*
X501508D01*
X499500Y225075D02*
Y229090D01*
X497492Y237083D02*
X501508D01*
X499500Y235075D02*
Y239090D01*
X497492Y247083D02*
X501508D01*
X499500Y245075D02*
Y249091D01*
X497492Y257083D02*
X501508D01*
X499500Y255075D02*
Y259090D01*
X497492Y267083D02*
X501508D01*
X499500Y265075D02*
Y269091D01*
X497492Y277083D02*
X501508D01*
X499500Y275075D02*
Y279090D01*
X397492Y137083D02*
X401508D01*
X399500Y135075D02*
Y139091D01*
X397492Y147083D02*
X401508D01*
X399500Y145075D02*
Y149091D01*
X397492Y157083D02*
X401508D01*
X399500Y155075D02*
Y159090D01*
X397492Y167083D02*
X401508D01*
X399500Y165075D02*
Y169090D01*
X397492Y177083D02*
X401508D01*
X399500Y175075D02*
Y179090D01*
X397492Y187083D02*
X401508D01*
X399500Y185075D02*
Y189091D01*
X397492Y197083D02*
X401508D01*
X399500Y195075D02*
Y199091D01*
X397492Y207083D02*
X401508D01*
X399500Y205075D02*
Y209090D01*
X397492Y217083D02*
X401508D01*
X399500Y215075D02*
Y219091D01*
X397492Y227083D02*
X401508D01*
X399500Y225075D02*
Y229090D01*
X397492Y237083D02*
X401508D01*
X399500Y235075D02*
Y239090D01*
X397492Y247083D02*
X401508D01*
X399500Y245075D02*
Y249091D01*
X397492Y257083D02*
X401508D01*
X399500Y255075D02*
Y259090D01*
X397492Y267083D02*
X401508D01*
X399500Y265075D02*
Y269091D01*
X397492Y277083D02*
X401508D01*
X399500Y275075D02*
Y279090D01*
X543405Y162500D02*
X546594D01*
X545000Y160906D02*
Y164094D01*
X543405Y152500D02*
X546594D01*
X545000Y150906D02*
Y154095D01*
X543405Y198500D02*
X546594D01*
X545000Y196906D02*
Y200095D01*
X543405Y188500D02*
X546594D01*
X545000Y186906D02*
Y190094D01*
X544906Y235000D02*
X548095D01*
X546500Y233405D02*
Y236595D01*
X544906Y225000D02*
X548095D01*
X546500Y223406D02*
Y226594D01*
X528992Y152000D02*
X533008D01*
X531000Y149992D02*
Y154008D01*
X528992Y132000D02*
X533008D01*
X531000Y129992D02*
Y134008D01*
X528992Y191000D02*
X533008D01*
X531000Y188992D02*
Y193008D01*
X528992Y171000D02*
X533008D01*
X531000Y168992D02*
Y173008D01*
X528492Y233500D02*
X532508D01*
X530500Y231492D02*
Y235508D01*
X528492Y213500D02*
X532508D01*
X530500Y211492D02*
Y215508D01*
X528492Y272500D02*
X532508D01*
X530500Y270492D02*
Y274508D01*
X528492Y252500D02*
X532508D01*
X530500Y250492D02*
Y254508D01*
X528492Y310500D02*
X532508D01*
X530500Y308492D02*
Y312508D01*
X528492Y290500D02*
X532508D01*
X530500Y288492D02*
Y292508D01*
X517327Y156500D02*
X520673D01*
X519000Y154827D02*
Y158173D01*
X517327Y126500D02*
X520673D01*
X519000Y124827D02*
Y128173D01*
X517327Y196000D02*
X520673D01*
X519000Y194327D02*
Y197673D01*
X517327Y166000D02*
X520673D01*
X519000Y164327D02*
Y167673D01*
X517327Y235000D02*
X520673D01*
X519000Y233327D02*
Y236673D01*
X517327Y205000D02*
X520673D01*
X519000Y203327D02*
Y206673D01*
X517327Y274000D02*
X520673D01*
X519000Y272327D02*
Y275673D01*
X517327Y244000D02*
X520673D01*
X519000Y242327D02*
Y245673D01*
X516327Y313500D02*
X519673D01*
X518000Y311827D02*
Y315173D01*
X516327Y283500D02*
X519673D01*
X518000Y281827D02*
Y285173D01*
X542492Y260000D02*
X546508D01*
X544500Y257992D02*
Y262008D01*
X542492Y270000D02*
X546508D01*
X544500Y267992D02*
Y272008D01*
X542492Y280000D02*
X546508D01*
X544500Y277992D02*
Y282008D01*
X542492Y290000D02*
X546508D01*
X544500Y287992D02*
Y292008D01*
X437183Y267083D02*
X439983D01*
X438583Y265683D02*
Y268483D01*
M02*
